<?xml version="1.0" standalone="no"?>
<!DOCTYPE svg PUBLIC "-//W3C//DTD SVG 20010904//EN"
 "http://www.w3.org/TR/2001/REC-SVG-20010904/DTD/svg10.dtd">
<svg version="1.0" xmlns="http://www.w3.org/2000/svg"
 width="700.000000pt" height="700.000000pt" viewBox="0 0 700.000000 700.000000"
 preserveAspectRatio="xMidYMid meet">
<metadata>
Created by potrace 1.14, written by Peter Selinger 2001-2017
</metadata>
<g transform="translate(0.000000,700.000000) scale(0.100000,-0.100000)"
fill="#000000" stroke="none">
<path d="M3421 6988 c-12 -4 -598 -392 -1303 -861 -1276 -849 -1930 -1282
-2000 -1325 -82 -50 -123 -128 -113 -210 7 -59 19 -84 56 -121 19 -19 259
-182 534 -364 697 -459 760 -501 763 -509 2 -5 7 -8 12 -8 5 0 253 -163 552
-362 299 -199 741 -493 983 -653 242 -160 447 -298 455 -306 23 -23 96 -49
139 -49 58 0 97 17 201 89 53 36 356 239 675 451 319 212 584 388 590 393 5 4
435 290 955 635 780 519 957 640 1013 697 l67 69 0 66 0 67 -57 55 c-34 32
-347 247 -763 523 -388 258 -1129 751 -1647 1096 -687 457 -952 629 -980 634
-44 7 -103 4 -132 -7z"/>
<path d="M235 3770 c-126 -83 -182 -129 -203 -167 -56 -102 -23 -224 78 -286
46 -28 902 -596 2040 -1353 503 -335 920 -611 925 -614 14 -7 220 -145 275
-184 61 -43 88 -55 135 -59 44 -4 120 16 144 37 9 7 97 67 196 133 2829 1882
3052 2031 3113 2094 l63 64 -5 57 c-7 73 -23 104 -83 157 -56 49 -56 49 -106
80 -21 13 -44 30 -53 38 -8 8 -31 17 -52 20 -36 5 -77 -22 -897 -567 -473
-315 -1067 -710 -1320 -878 -253 -168 -504 -335 -558 -371 -207 -140 -278
-166 -453 -165 -103 1 -205 27 -282 73 -26 15 -492 324 -1037 687 -544 362
-994 661 -1000 664 -15 7 -721 483 -779 525 -56 40 -96 45 -141 15z"/>
<path d="M224 2657 c-27 -18 -71 -49 -99 -67 -91 -62 -119 -107 -119 -196 0
-85 32 -138 121 -197 301 -198 754 -498 1218 -805 303 -201 721 -478 930 -617
209 -138 558 -369 775 -513 l395 -262 62 0 c58 0 67 3 135 49 91 61 913 604
1148 759 96 63 598 396 1115 740 806 536 951 636 1018 702 l77 78 0 56 c0 67
-14 98 -67 147 -59 56 -188 140 -223 146 -26 4 -45 -4 -98 -40 -37 -25 -182
-120 -322 -212 -140 -93 -347 -229 -460 -303 -113 -75 -281 -186 -375 -247
-93 -62 -305 -201 -470 -310 -475 -313 -783 -516 -1017 -669 -212 -140 -277
-172 -383 -191 -42 -8 -177 -7 -212 1 -38 8 -143 44 -168 57 -19 10 -1720
1138 -1780 1180 -16 12 -52 36 -80 54 -27 18 -57 37 -65 43 -8 5 -202 134
-430 286 -228 152 -431 289 -450 304 -42 33 -93 60 -113 60 -8 0 -37 -15 -63
-33z"/>
</g>
</svg>
